<?xml version="1.0" encoding="utf-8" standalone="no"?>
<!DOCTYPE svg PUBLIC "-//W3C//DTD SVG 1.1//EN"
  "http://www.w3.org/Graphics/SVG/1.1/DTD/svg11.dtd">
<!-- Created with matplotlib (https://matplotlib.org/) -->
<svg height="345.6pt" version="1.1" viewBox="0 0 460.8 345.6" width="460.8pt" xmlns="http://www.w3.org/2000/svg" xmlns:xlink="http://www.w3.org/1999/xlink">
 <defs>
  <style type="text/css">
*{stroke-linecap:butt;stroke-linejoin:round;}
  </style>
 </defs>
 <g id="figure_1">
  <g id="patch_1">
   <path d="M 0 345.6 
L 460.8 345.6 
L 460.8 0 
L 0 0 
z
" style="fill:#ffffff;"/>
  </g>
  <g id="axes_1">
   <g id="patch_2">
    <path d="M 57.6 307.584 
L 414.72 307.584 
L 414.72 41.472 
L 57.6 41.472 
z
" style="fill:#ffffff;"/>
   </g>
   <g id="matplotlib.axis_1">
    <g id="xtick_1">
     <g id="line2d_1">
      <defs>
       <path d="M 0 0 
L 0 3.5 
" id="m12ef65421f" style="stroke:#000000;stroke-width:0.8;"/>
      </defs>
      <g>
       <use style="stroke:#000000;stroke-width:0.8;" x="73.832727" xlink:href="#m12ef65421f" y="307.584"/>
      </g>
     </g>
     <g id="text_1">
      <!-- 0 -->
      <defs>
       <path d="M 31.78125 66.40625 
Q 24.171875 66.40625 20.328125 58.90625 
Q 16.5 51.421875 16.5 36.375 
Q 16.5 21.390625 20.328125 13.890625 
Q 24.171875 6.390625 31.78125 6.390625 
Q 39.453125 6.390625 43.28125 13.890625 
Q 47.125 21.390625 47.125 36.375 
Q 47.125 51.421875 43.28125 58.90625 
Q 39.453125 66.40625 31.78125 66.40625 
z
M 31.78125 74.21875 
Q 44.046875 74.21875 50.515625 64.515625 
Q 56.984375 54.828125 56.984375 36.375 
Q 56.984375 17.96875 50.515625 8.265625 
Q 44.046875 -1.421875 31.78125 -1.421875 
Q 19.53125 -1.421875 13.0625 8.265625 
Q 6.59375 17.96875 6.59375 36.375 
Q 6.59375 54.828125 13.0625 64.515625 
Q 19.53125 74.21875 31.78125 74.21875 
z
" id="DejaVuSans-48"/>
      </defs>
      <g transform="translate(70.651477 322.182437)scale(0.1 -0.1)">
       <use xlink:href="#DejaVuSans-48"/>
      </g>
     </g>
    </g>
    <g id="xtick_2">
     <g id="line2d_2">
      <g>
       <use style="stroke:#000000;stroke-width:0.8;" x="127.946328" xlink:href="#m12ef65421f" y="307.584"/>
      </g>
     </g>
     <g id="text_2">
      <!-- 2000 -->
      <defs>
       <path d="M 19.1875 8.296875 
L 53.609375 8.296875 
L 53.609375 0 
L 7.328125 0 
L 7.328125 8.296875 
Q 12.9375 14.109375 22.625 23.890625 
Q 32.328125 33.6875 34.8125 36.53125 
Q 39.546875 41.84375 41.421875 45.53125 
Q 43.3125 49.21875 43.3125 52.78125 
Q 43.3125 58.59375 39.234375 62.25 
Q 35.15625 65.921875 28.609375 65.921875 
Q 23.96875 65.921875 18.8125 64.3125 
Q 13.671875 62.703125 7.8125 59.421875 
L 7.8125 69.390625 
Q 13.765625 71.78125 18.9375 73 
Q 24.125 74.21875 28.421875 74.21875 
Q 39.75 74.21875 46.484375 68.546875 
Q 53.21875 62.890625 53.21875 53.421875 
Q 53.21875 48.921875 51.53125 44.890625 
Q 49.859375 40.875 45.40625 35.40625 
Q 44.1875 33.984375 37.640625 27.21875 
Q 31.109375 20.453125 19.1875 8.296875 
z
" id="DejaVuSans-50"/>
      </defs>
      <g transform="translate(115.221328 322.182437)scale(0.1 -0.1)">
       <use xlink:href="#DejaVuSans-50"/>
       <use x="63.623047" xlink:href="#DejaVuSans-48"/>
       <use x="127.246094" xlink:href="#DejaVuSans-48"/>
       <use x="190.869141" xlink:href="#DejaVuSans-48"/>
      </g>
     </g>
    </g>
    <g id="xtick_3">
     <g id="line2d_3">
      <g>
       <use style="stroke:#000000;stroke-width:0.8;" x="182.059928" xlink:href="#m12ef65421f" y="307.584"/>
      </g>
     </g>
     <g id="text_3">
      <!-- 4000 -->
      <defs>
       <path d="M 37.796875 64.3125 
L 12.890625 25.390625 
L 37.796875 25.390625 
z
M 35.203125 72.90625 
L 47.609375 72.90625 
L 47.609375 25.390625 
L 58.015625 25.390625 
L 58.015625 17.1875 
L 47.609375 17.1875 
L 47.609375 0 
L 37.796875 0 
L 37.796875 17.1875 
L 4.890625 17.1875 
L 4.890625 26.703125 
z
" id="DejaVuSans-52"/>
      </defs>
      <g transform="translate(169.334928 322.182437)scale(0.1 -0.1)">
       <use xlink:href="#DejaVuSans-52"/>
       <use x="63.623047" xlink:href="#DejaVuSans-48"/>
       <use x="127.246094" xlink:href="#DejaVuSans-48"/>
       <use x="190.869141" xlink:href="#DejaVuSans-48"/>
      </g>
     </g>
    </g>
    <g id="xtick_4">
     <g id="line2d_4">
      <g>
       <use style="stroke:#000000;stroke-width:0.8;" x="236.173528" xlink:href="#m12ef65421f" y="307.584"/>
      </g>
     </g>
     <g id="text_4">
      <!-- 6000 -->
      <defs>
       <path d="M 33.015625 40.375 
Q 26.375 40.375 22.484375 35.828125 
Q 18.609375 31.296875 18.609375 23.390625 
Q 18.609375 15.53125 22.484375 10.953125 
Q 26.375 6.390625 33.015625 6.390625 
Q 39.65625 6.390625 43.53125 10.953125 
Q 47.40625 15.53125 47.40625 23.390625 
Q 47.40625 31.296875 43.53125 35.828125 
Q 39.65625 40.375 33.015625 40.375 
z
M 52.59375 71.296875 
L 52.59375 62.3125 
Q 48.875 64.0625 45.09375 64.984375 
Q 41.3125 65.921875 37.59375 65.921875 
Q 27.828125 65.921875 22.671875 59.328125 
Q 17.53125 52.734375 16.796875 39.40625 
Q 19.671875 43.65625 24.015625 45.921875 
Q 28.375 48.1875 33.59375 48.1875 
Q 44.578125 48.1875 50.953125 41.515625 
Q 57.328125 34.859375 57.328125 23.390625 
Q 57.328125 12.15625 50.6875 5.359375 
Q 44.046875 -1.421875 33.015625 -1.421875 
Q 20.359375 -1.421875 13.671875 8.265625 
Q 6.984375 17.96875 6.984375 36.375 
Q 6.984375 53.65625 15.1875 63.9375 
Q 23.390625 74.21875 37.203125 74.21875 
Q 40.921875 74.21875 44.703125 73.484375 
Q 48.484375 72.75 52.59375 71.296875 
z
" id="DejaVuSans-54"/>
      </defs>
      <g transform="translate(223.448528 322.182437)scale(0.1 -0.1)">
       <use xlink:href="#DejaVuSans-54"/>
       <use x="63.623047" xlink:href="#DejaVuSans-48"/>
       <use x="127.246094" xlink:href="#DejaVuSans-48"/>
       <use x="190.869141" xlink:href="#DejaVuSans-48"/>
      </g>
     </g>
    </g>
    <g id="xtick_5">
     <g id="line2d_5">
      <g>
       <use style="stroke:#000000;stroke-width:0.8;" x="290.287129" xlink:href="#m12ef65421f" y="307.584"/>
      </g>
     </g>
     <g id="text_5">
      <!-- 8000 -->
      <defs>
       <path d="M 31.78125 34.625 
Q 24.75 34.625 20.71875 30.859375 
Q 16.703125 27.09375 16.703125 20.515625 
Q 16.703125 13.921875 20.71875 10.15625 
Q 24.75 6.390625 31.78125 6.390625 
Q 38.8125 6.390625 42.859375 10.171875 
Q 46.921875 13.96875 46.921875 20.515625 
Q 46.921875 27.09375 42.890625 30.859375 
Q 38.875 34.625 31.78125 34.625 
z
M 21.921875 38.8125 
Q 15.578125 40.375 12.03125 44.71875 
Q 8.5 49.078125 8.5 55.328125 
Q 8.5 64.0625 14.71875 69.140625 
Q 20.953125 74.21875 31.78125 74.21875 
Q 42.671875 74.21875 48.875 69.140625 
Q 55.078125 64.0625 55.078125 55.328125 
Q 55.078125 49.078125 51.53125 44.71875 
Q 48 40.375 41.703125 38.8125 
Q 48.828125 37.15625 52.796875 32.3125 
Q 56.78125 27.484375 56.78125 20.515625 
Q 56.78125 9.90625 50.3125 4.234375 
Q 43.84375 -1.421875 31.78125 -1.421875 
Q 19.734375 -1.421875 13.25 4.234375 
Q 6.78125 9.90625 6.78125 20.515625 
Q 6.78125 27.484375 10.78125 32.3125 
Q 14.796875 37.15625 21.921875 38.8125 
z
M 18.3125 54.390625 
Q 18.3125 48.734375 21.84375 45.5625 
Q 25.390625 42.390625 31.78125 42.390625 
Q 38.140625 42.390625 41.71875 45.5625 
Q 45.3125 48.734375 45.3125 54.390625 
Q 45.3125 60.0625 41.71875 63.234375 
Q 38.140625 66.40625 31.78125 66.40625 
Q 25.390625 66.40625 21.84375 63.234375 
Q 18.3125 60.0625 18.3125 54.390625 
z
" id="DejaVuSans-56"/>
      </defs>
      <g transform="translate(277.562129 322.182437)scale(0.1 -0.1)">
       <use xlink:href="#DejaVuSans-56"/>
       <use x="63.623047" xlink:href="#DejaVuSans-48"/>
       <use x="127.246094" xlink:href="#DejaVuSans-48"/>
       <use x="190.869141" xlink:href="#DejaVuSans-48"/>
      </g>
     </g>
    </g>
    <g id="xtick_6">
     <g id="line2d_6">
      <g>
       <use style="stroke:#000000;stroke-width:0.8;" x="344.400729" xlink:href="#m12ef65421f" y="307.584"/>
      </g>
     </g>
     <g id="text_6">
      <!-- 10000 -->
      <defs>
       <path d="M 12.40625 8.296875 
L 28.515625 8.296875 
L 28.515625 63.921875 
L 10.984375 60.40625 
L 10.984375 69.390625 
L 28.421875 72.90625 
L 38.28125 72.90625 
L 38.28125 8.296875 
L 54.390625 8.296875 
L 54.390625 0 
L 12.40625 0 
z
" id="DejaVuSans-49"/>
      </defs>
      <g transform="translate(328.494479 322.182437)scale(0.1 -0.1)">
       <use xlink:href="#DejaVuSans-49"/>
       <use x="63.623047" xlink:href="#DejaVuSans-48"/>
       <use x="127.246094" xlink:href="#DejaVuSans-48"/>
       <use x="190.869141" xlink:href="#DejaVuSans-48"/>
       <use x="254.492188" xlink:href="#DejaVuSans-48"/>
      </g>
     </g>
    </g>
    <g id="xtick_7">
     <g id="line2d_7">
      <g>
       <use style="stroke:#000000;stroke-width:0.8;" x="398.51433" xlink:href="#m12ef65421f" y="307.584"/>
      </g>
     </g>
     <g id="text_7">
      <!-- 12000 -->
      <g transform="translate(382.60808 322.182437)scale(0.1 -0.1)">
       <use xlink:href="#DejaVuSans-49"/>
       <use x="63.623047" xlink:href="#DejaVuSans-50"/>
       <use x="127.246094" xlink:href="#DejaVuSans-48"/>
       <use x="190.869141" xlink:href="#DejaVuSans-48"/>
       <use x="254.492188" xlink:href="#DejaVuSans-48"/>
      </g>
     </g>
    </g>
    <g id="text_8">
     <!-- Sample number -->
     <defs>
      <path d="M 53.515625 70.515625 
L 53.515625 60.890625 
Q 47.90625 63.578125 42.921875 64.890625 
Q 37.9375 66.21875 33.296875 66.21875 
Q 25.25 66.21875 20.875 63.09375 
Q 16.5 59.96875 16.5 54.203125 
Q 16.5 49.359375 19.40625 46.890625 
Q 22.3125 44.4375 30.421875 42.921875 
L 36.375 41.703125 
Q 47.40625 39.59375 52.65625 34.296875 
Q 57.90625 29 57.90625 20.125 
Q 57.90625 9.515625 50.796875 4.046875 
Q 43.703125 -1.421875 29.984375 -1.421875 
Q 24.8125 -1.421875 18.96875 -0.25 
Q 13.140625 0.921875 6.890625 3.21875 
L 6.890625 13.375 
Q 12.890625 10.015625 18.65625 8.296875 
Q 24.421875 6.59375 29.984375 6.59375 
Q 38.421875 6.59375 43.015625 9.90625 
Q 47.609375 13.234375 47.609375 19.390625 
Q 47.609375 24.75 44.3125 27.78125 
Q 41.015625 30.8125 33.5 32.328125 
L 27.484375 33.5 
Q 16.453125 35.6875 11.515625 40.375 
Q 6.59375 45.0625 6.59375 53.421875 
Q 6.59375 63.09375 13.40625 68.65625 
Q 20.21875 74.21875 32.171875 74.21875 
Q 37.3125 74.21875 42.625 73.28125 
Q 47.953125 72.359375 53.515625 70.515625 
z
" id="DejaVuSans-83"/>
      <path d="M 34.28125 27.484375 
Q 23.390625 27.484375 19.1875 25 
Q 14.984375 22.515625 14.984375 16.5 
Q 14.984375 11.71875 18.140625 8.90625 
Q 21.296875 6.109375 26.703125 6.109375 
Q 34.1875 6.109375 38.703125 11.40625 
Q 43.21875 16.703125 43.21875 25.484375 
L 43.21875 27.484375 
z
M 52.203125 31.203125 
L 52.203125 0 
L 43.21875 0 
L 43.21875 8.296875 
Q 40.140625 3.328125 35.546875 0.953125 
Q 30.953125 -1.421875 24.3125 -1.421875 
Q 15.921875 -1.421875 10.953125 3.296875 
Q 6 8.015625 6 15.921875 
Q 6 25.140625 12.171875 29.828125 
Q 18.359375 34.515625 30.609375 34.515625 
L 43.21875 34.515625 
L 43.21875 35.40625 
Q 43.21875 41.609375 39.140625 45 
Q 35.0625 48.390625 27.6875 48.390625 
Q 23 48.390625 18.546875 47.265625 
Q 14.109375 46.140625 10.015625 43.890625 
L 10.015625 52.203125 
Q 14.9375 54.109375 19.578125 55.046875 
Q 24.21875 56 28.609375 56 
Q 40.484375 56 46.34375 49.84375 
Q 52.203125 43.703125 52.203125 31.203125 
z
" id="DejaVuSans-97"/>
      <path d="M 52 44.1875 
Q 55.375 50.25 60.0625 53.125 
Q 64.75 56 71.09375 56 
Q 79.640625 56 84.28125 50.015625 
Q 88.921875 44.046875 88.921875 33.015625 
L 88.921875 0 
L 79.890625 0 
L 79.890625 32.71875 
Q 79.890625 40.578125 77.09375 44.375 
Q 74.3125 48.1875 68.609375 48.1875 
Q 61.625 48.1875 57.5625 43.546875 
Q 53.515625 38.921875 53.515625 30.90625 
L 53.515625 0 
L 44.484375 0 
L 44.484375 32.71875 
Q 44.484375 40.625 41.703125 44.40625 
Q 38.921875 48.1875 33.109375 48.1875 
Q 26.21875 48.1875 22.15625 43.53125 
Q 18.109375 38.875 18.109375 30.90625 
L 18.109375 0 
L 9.078125 0 
L 9.078125 54.6875 
L 18.109375 54.6875 
L 18.109375 46.1875 
Q 21.1875 51.21875 25.484375 53.609375 
Q 29.78125 56 35.6875 56 
Q 41.65625 56 45.828125 52.96875 
Q 50 49.953125 52 44.1875 
z
" id="DejaVuSans-109"/>
      <path d="M 18.109375 8.203125 
L 18.109375 -20.796875 
L 9.078125 -20.796875 
L 9.078125 54.6875 
L 18.109375 54.6875 
L 18.109375 46.390625 
Q 20.953125 51.265625 25.265625 53.625 
Q 29.59375 56 35.59375 56 
Q 45.5625 56 51.78125 48.09375 
Q 58.015625 40.1875 58.015625 27.296875 
Q 58.015625 14.40625 51.78125 6.484375 
Q 45.5625 -1.421875 35.59375 -1.421875 
Q 29.59375 -1.421875 25.265625 0.953125 
Q 20.953125 3.328125 18.109375 8.203125 
z
M 48.6875 27.296875 
Q 48.6875 37.203125 44.609375 42.84375 
Q 40.53125 48.484375 33.40625 48.484375 
Q 26.265625 48.484375 22.1875 42.84375 
Q 18.109375 37.203125 18.109375 27.296875 
Q 18.109375 17.390625 22.1875 11.75 
Q 26.265625 6.109375 33.40625 6.109375 
Q 40.53125 6.109375 44.609375 11.75 
Q 48.6875 17.390625 48.6875 27.296875 
z
" id="DejaVuSans-112"/>
      <path d="M 9.421875 75.984375 
L 18.40625 75.984375 
L 18.40625 0 
L 9.421875 0 
z
" id="DejaVuSans-108"/>
      <path d="M 56.203125 29.59375 
L 56.203125 25.203125 
L 14.890625 25.203125 
Q 15.484375 15.921875 20.484375 11.0625 
Q 25.484375 6.203125 34.421875 6.203125 
Q 39.59375 6.203125 44.453125 7.46875 
Q 49.3125 8.734375 54.109375 11.28125 
L 54.109375 2.78125 
Q 49.265625 0.734375 44.1875 -0.34375 
Q 39.109375 -1.421875 33.890625 -1.421875 
Q 20.796875 -1.421875 13.15625 6.1875 
Q 5.515625 13.8125 5.515625 26.8125 
Q 5.515625 40.234375 12.765625 48.109375 
Q 20.015625 56 32.328125 56 
Q 43.359375 56 49.78125 48.890625 
Q 56.203125 41.796875 56.203125 29.59375 
z
M 47.21875 32.234375 
Q 47.125 39.59375 43.09375 43.984375 
Q 39.0625 48.390625 32.421875 48.390625 
Q 24.90625 48.390625 20.390625 44.140625 
Q 15.875 39.890625 15.1875 32.171875 
z
" id="DejaVuSans-101"/>
      <path id="DejaVuSans-32"/>
      <path d="M 54.890625 33.015625 
L 54.890625 0 
L 45.90625 0 
L 45.90625 32.71875 
Q 45.90625 40.484375 42.875 44.328125 
Q 39.84375 48.1875 33.796875 48.1875 
Q 26.515625 48.1875 22.3125 43.546875 
Q 18.109375 38.921875 18.109375 30.90625 
L 18.109375 0 
L 9.078125 0 
L 9.078125 54.6875 
L 18.109375 54.6875 
L 18.109375 46.1875 
Q 21.34375 51.125 25.703125 53.5625 
Q 30.078125 56 35.796875 56 
Q 45.21875 56 50.046875 50.171875 
Q 54.890625 44.34375 54.890625 33.015625 
z
" id="DejaVuSans-110"/>
      <path d="M 8.5 21.578125 
L 8.5 54.6875 
L 17.484375 54.6875 
L 17.484375 21.921875 
Q 17.484375 14.15625 20.5 10.265625 
Q 23.53125 6.390625 29.59375 6.390625 
Q 36.859375 6.390625 41.078125 11.03125 
Q 45.3125 15.671875 45.3125 23.6875 
L 45.3125 54.6875 
L 54.296875 54.6875 
L 54.296875 0 
L 45.3125 0 
L 45.3125 8.40625 
Q 42.046875 3.421875 37.71875 1 
Q 33.40625 -1.421875 27.6875 -1.421875 
Q 18.265625 -1.421875 13.375 4.4375 
Q 8.5 10.296875 8.5 21.578125 
z
M 31.109375 56 
z
" id="DejaVuSans-117"/>
      <path d="M 48.6875 27.296875 
Q 48.6875 37.203125 44.609375 42.84375 
Q 40.53125 48.484375 33.40625 48.484375 
Q 26.265625 48.484375 22.1875 42.84375 
Q 18.109375 37.203125 18.109375 27.296875 
Q 18.109375 17.390625 22.1875 11.75 
Q 26.265625 6.109375 33.40625 6.109375 
Q 40.53125 6.109375 44.609375 11.75 
Q 48.6875 17.390625 48.6875 27.296875 
z
M 18.109375 46.390625 
Q 20.953125 51.265625 25.265625 53.625 
Q 29.59375 56 35.59375 56 
Q 45.5625 56 51.78125 48.09375 
Q 58.015625 40.1875 58.015625 27.296875 
Q 58.015625 14.40625 51.78125 6.484375 
Q 45.5625 -1.421875 35.59375 -1.421875 
Q 29.59375 -1.421875 25.265625 0.953125 
Q 20.953125 3.328125 18.109375 8.203125 
L 18.109375 0 
L 9.078125 0 
L 9.078125 75.984375 
L 18.109375 75.984375 
z
" id="DejaVuSans-98"/>
      <path d="M 41.109375 46.296875 
Q 39.59375 47.171875 37.8125 47.578125 
Q 36.03125 48 33.890625 48 
Q 26.265625 48 22.1875 43.046875 
Q 18.109375 38.09375 18.109375 28.8125 
L 18.109375 0 
L 9.078125 0 
L 9.078125 54.6875 
L 18.109375 54.6875 
L 18.109375 46.1875 
Q 20.953125 51.171875 25.484375 53.578125 
Q 30.03125 56 36.53125 56 
Q 37.453125 56 38.578125 55.875 
Q 39.703125 55.765625 41.0625 55.515625 
z
" id="DejaVuSans-114"/>
     </defs>
     <g transform="translate(196.308437 335.860562)scale(0.1 -0.1)">
      <use xlink:href="#DejaVuSans-83"/>
      <use x="63.476562" xlink:href="#DejaVuSans-97"/>
      <use x="124.755859" xlink:href="#DejaVuSans-109"/>
      <use x="222.167969" xlink:href="#DejaVuSans-112"/>
      <use x="285.644531" xlink:href="#DejaVuSans-108"/>
      <use x="313.427734" xlink:href="#DejaVuSans-101"/>
      <use x="374.951172" xlink:href="#DejaVuSans-32"/>
      <use x="406.738281" xlink:href="#DejaVuSans-110"/>
      <use x="470.117188" xlink:href="#DejaVuSans-117"/>
      <use x="533.496094" xlink:href="#DejaVuSans-109"/>
      <use x="630.908203" xlink:href="#DejaVuSans-98"/>
      <use x="694.384766" xlink:href="#DejaVuSans-101"/>
      <use x="755.908203" xlink:href="#DejaVuSans-114"/>
     </g>
    </g>
   </g>
   <g id="matplotlib.axis_2">
    <g id="ytick_1">
     <g id="line2d_8">
      <defs>
       <path d="M 0 0 
L -3.5 0 
" id="mdfb5eae66b" style="stroke:#000000;stroke-width:0.8;"/>
      </defs>
      <g>
       <use style="stroke:#000000;stroke-width:0.8;" x="57.6" xlink:href="#mdfb5eae66b" y="302.02638"/>
      </g>
     </g>
     <g id="text_9">
      <!-- −0.6 -->
      <defs>
       <path d="M 10.59375 35.5 
L 73.1875 35.5 
L 73.1875 27.203125 
L 10.59375 27.203125 
z
" id="DejaVuSans-8722"/>
       <path d="M 10.6875 12.40625 
L 21 12.40625 
L 21 0 
L 10.6875 0 
z
" id="DejaVuSans-46"/>
      </defs>
      <g transform="translate(26.317187 305.825599)scale(0.1 -0.1)">
       <use xlink:href="#DejaVuSans-8722"/>
       <use x="83.789062" xlink:href="#DejaVuSans-48"/>
       <use x="147.412109" xlink:href="#DejaVuSans-46"/>
       <use x="179.199219" xlink:href="#DejaVuSans-54"/>
      </g>
     </g>
    </g>
    <g id="ytick_2">
     <g id="line2d_9">
      <g>
       <use style="stroke:#000000;stroke-width:0.8;" x="57.6" xlink:href="#mdfb5eae66b" y="258.437191"/>
      </g>
     </g>
     <g id="text_10">
      <!-- −0.4 -->
      <g transform="translate(26.317187 262.23641)scale(0.1 -0.1)">
       <use xlink:href="#DejaVuSans-8722"/>
       <use x="83.789062" xlink:href="#DejaVuSans-48"/>
       <use x="147.412109" xlink:href="#DejaVuSans-46"/>
       <use x="179.199219" xlink:href="#DejaVuSans-52"/>
      </g>
     </g>
    </g>
    <g id="ytick_3">
     <g id="line2d_10">
      <g>
       <use style="stroke:#000000;stroke-width:0.8;" x="57.6" xlink:href="#mdfb5eae66b" y="214.848003"/>
      </g>
     </g>
     <g id="text_11">
      <!-- −0.2 -->
      <g transform="translate(26.317187 218.647221)scale(0.1 -0.1)">
       <use xlink:href="#DejaVuSans-8722"/>
       <use x="83.789062" xlink:href="#DejaVuSans-48"/>
       <use x="147.412109" xlink:href="#DejaVuSans-46"/>
       <use x="179.199219" xlink:href="#DejaVuSans-50"/>
      </g>
     </g>
    </g>
    <g id="ytick_4">
     <g id="line2d_11">
      <g>
       <use style="stroke:#000000;stroke-width:0.8;" x="57.6" xlink:href="#mdfb5eae66b" y="171.258814"/>
      </g>
     </g>
     <g id="text_12">
      <!-- 0.0 -->
      <g transform="translate(34.696875 175.058033)scale(0.1 -0.1)">
       <use xlink:href="#DejaVuSans-48"/>
       <use x="63.623047" xlink:href="#DejaVuSans-46"/>
       <use x="95.410156" xlink:href="#DejaVuSans-48"/>
      </g>
     </g>
    </g>
    <g id="ytick_5">
     <g id="line2d_12">
      <g>
       <use style="stroke:#000000;stroke-width:0.8;" x="57.6" xlink:href="#mdfb5eae66b" y="127.669625"/>
      </g>
     </g>
     <g id="text_13">
      <!-- 0.2 -->
      <g transform="translate(34.696875 131.468844)scale(0.1 -0.1)">
       <use xlink:href="#DejaVuSans-48"/>
       <use x="63.623047" xlink:href="#DejaVuSans-46"/>
       <use x="95.410156" xlink:href="#DejaVuSans-50"/>
      </g>
     </g>
    </g>
    <g id="ytick_6">
     <g id="line2d_13">
      <g>
       <use style="stroke:#000000;stroke-width:0.8;" x="57.6" xlink:href="#mdfb5eae66b" y="84.080437"/>
      </g>
     </g>
     <g id="text_14">
      <!-- 0.4 -->
      <g transform="translate(34.696875 87.879655)scale(0.1 -0.1)">
       <use xlink:href="#DejaVuSans-48"/>
       <use x="63.623047" xlink:href="#DejaVuSans-46"/>
       <use x="95.410156" xlink:href="#DejaVuSans-52"/>
      </g>
     </g>
    </g>
    <g id="text_15">
     <!-- Amplitude (arb. unit) -->
     <defs>
      <path d="M 34.1875 63.1875 
L 20.796875 26.90625 
L 47.609375 26.90625 
z
M 28.609375 72.90625 
L 39.796875 72.90625 
L 67.578125 0 
L 57.328125 0 
L 50.6875 18.703125 
L 17.828125 18.703125 
L 11.1875 0 
L 0.78125 0 
z
" id="DejaVuSans-65"/>
      <path d="M 9.421875 54.6875 
L 18.40625 54.6875 
L 18.40625 0 
L 9.421875 0 
z
M 9.421875 75.984375 
L 18.40625 75.984375 
L 18.40625 64.59375 
L 9.421875 64.59375 
z
" id="DejaVuSans-105"/>
      <path d="M 18.3125 70.21875 
L 18.3125 54.6875 
L 36.8125 54.6875 
L 36.8125 47.703125 
L 18.3125 47.703125 
L 18.3125 18.015625 
Q 18.3125 11.328125 20.140625 9.421875 
Q 21.96875 7.515625 27.59375 7.515625 
L 36.8125 7.515625 
L 36.8125 0 
L 27.59375 0 
Q 17.1875 0 13.234375 3.875 
Q 9.28125 7.765625 9.28125 18.015625 
L 9.28125 47.703125 
L 2.6875 47.703125 
L 2.6875 54.6875 
L 9.28125 54.6875 
L 9.28125 70.21875 
z
" id="DejaVuSans-116"/>
      <path d="M 45.40625 46.390625 
L 45.40625 75.984375 
L 54.390625 75.984375 
L 54.390625 0 
L 45.40625 0 
L 45.40625 8.203125 
Q 42.578125 3.328125 38.25 0.953125 
Q 33.9375 -1.421875 27.875 -1.421875 
Q 17.96875 -1.421875 11.734375 6.484375 
Q 5.515625 14.40625 5.515625 27.296875 
Q 5.515625 40.1875 11.734375 48.09375 
Q 17.96875 56 27.875 56 
Q 33.9375 56 38.25 53.625 
Q 42.578125 51.265625 45.40625 46.390625 
z
M 14.796875 27.296875 
Q 14.796875 17.390625 18.875 11.75 
Q 22.953125 6.109375 30.078125 6.109375 
Q 37.203125 6.109375 41.296875 11.75 
Q 45.40625 17.390625 45.40625 27.296875 
Q 45.40625 37.203125 41.296875 42.84375 
Q 37.203125 48.484375 30.078125 48.484375 
Q 22.953125 48.484375 18.875 42.84375 
Q 14.796875 37.203125 14.796875 27.296875 
z
" id="DejaVuSans-100"/>
      <path d="M 31 75.875 
Q 24.46875 64.65625 21.28125 53.65625 
Q 18.109375 42.671875 18.109375 31.390625 
Q 18.109375 20.125 21.3125 9.0625 
Q 24.515625 -2 31 -13.1875 
L 23.1875 -13.1875 
Q 15.875 -1.703125 12.234375 9.375 
Q 8.59375 20.453125 8.59375 31.390625 
Q 8.59375 42.28125 12.203125 53.3125 
Q 15.828125 64.359375 23.1875 75.875 
z
" id="DejaVuSans-40"/>
      <path d="M 8.015625 75.875 
L 15.828125 75.875 
Q 23.140625 64.359375 26.78125 53.3125 
Q 30.421875 42.28125 30.421875 31.390625 
Q 30.421875 20.453125 26.78125 9.375 
Q 23.140625 -1.703125 15.828125 -13.1875 
L 8.015625 -13.1875 
Q 14.5 -2 17.703125 9.0625 
Q 20.90625 20.125 20.90625 31.390625 
Q 20.90625 42.671875 17.703125 53.65625 
Q 14.5 64.65625 8.015625 75.875 
z
" id="DejaVuSans-41"/>
     </defs>
     <g transform="translate(20.2375 226.799875)rotate(-90)scale(0.1 -0.1)">
      <use xlink:href="#DejaVuSans-65"/>
      <use x="68.408203" xlink:href="#DejaVuSans-109"/>
      <use x="165.820312" xlink:href="#DejaVuSans-112"/>
      <use x="229.296875" xlink:href="#DejaVuSans-108"/>
      <use x="257.080078" xlink:href="#DejaVuSans-105"/>
      <use x="284.863281" xlink:href="#DejaVuSans-116"/>
      <use x="324.072266" xlink:href="#DejaVuSans-117"/>
      <use x="387.451172" xlink:href="#DejaVuSans-100"/>
      <use x="450.927734" xlink:href="#DejaVuSans-101"/>
      <use x="512.451172" xlink:href="#DejaVuSans-32"/>
      <use x="544.238281" xlink:href="#DejaVuSans-40"/>
      <use x="583.251953" xlink:href="#DejaVuSans-97"/>
      <use x="644.53125" xlink:href="#DejaVuSans-114"/>
      <use x="685.644531" xlink:href="#DejaVuSans-98"/>
      <use x="749.121094" xlink:href="#DejaVuSans-46"/>
      <use x="780.908203" xlink:href="#DejaVuSans-32"/>
      <use x="812.695312" xlink:href="#DejaVuSans-117"/>
      <use x="876.074219" xlink:href="#DejaVuSans-110"/>
      <use x="939.453125" xlink:href="#DejaVuSans-105"/>
      <use x="967.236328" xlink:href="#DejaVuSans-116"/>
      <use x="1006.445312" xlink:href="#DejaVuSans-41"/>
     </g>
    </g>
   </g>
   <g id="line2d_14">
    <path clip-path="url(#p6bbf3cd1b9)" d="M 73.832727 171.252058 
L 74.022125 171.272109 
L 74.157409 171.245519 
L 74.31975 171.284967 
L 74.427977 171.258814 
L 74.887942 171.26557 
L 75.131454 171.258814 
L 75.537306 171.272109 
L 75.67259 171.245519 
L 75.861987 171.258814 
L 91.338477 171.206507 
L 91.500818 170.496003 
L 91.527875 170.583182 
L 91.581988 170.735744 
L 91.609045 170.474209 
L 91.960783 166.464003 
L 91.98784 166.464003 
L 92.474863 161.669193 
L 92.907771 153.823139 
L 92.934828 152.297517 
L 92.988942 153.823139 
L 93.070112 154.912868 
L 93.097169 154.041084 
L 93.178339 150.989841 
L 93.232453 152.079571 
L 93.25951 152.515462 
L 93.286567 151.643678 
L 93.611248 142.925842 
L 93.719475 142.925842 
L 93.881816 138.566921 
L 93.990043 138.566921 
L 94.125327 136.387464 
L 94.179441 136.387464 
L 94.314725 134.208003 
L 94.368839 134.208003 
L 94.531179 129.849085 
L 94.585293 129.849085 
L 94.720577 123.310707 
L 94.747634 125.490167 
L 94.828804 127.669625 
L 94.855861 125.490167 
L 94.991145 114.592871 
L 95.045259 118.951789 
L 95.180543 125.490167 
L 95.396997 105.875028 
L 95.451111 105.875028 
L 95.613451 110.23395 
L 95.667565 110.23395 
L 95.829906 114.592871 
L 95.884019 114.592871 
L 96.154587 101.516114 
L 96.181644 101.516114 
L 96.776894 140.746382 
L 96.831007 140.746382 
L 97.128632 156.002598 
L 97.453314 166.681949 
L 97.615655 170.975484 
L 97.777995 177.361301 
L 97.99445 182.809949 
L 98.156791 188.912435 
L 98.67087 212.668543 
L 98.806154 212.668543 
L 99.076722 225.7453 
L 99.103779 225.7453 
L 99.320233 234.463136 
L 99.34729 234.463136 
L 99.482574 238.822057 
L 99.617858 236.6426 
L 99.834312 245.360435 
L 99.888426 245.360435 
L 100.131937 256.257729 
L 100.321335 256.257729 
L 100.591903 269.334486 
L 100.618959 269.334486 
L 100.727187 271.51395 
L 100.835414 267.155028 
L 100.862471 269.334486 
L 100.970698 269.334486 
L 101.160095 275.872864 
L 101.241266 275.872864 
L 101.403607 280.231786 
L 101.484777 280.231786 
L 101.511834 282.411243 
L 101.593004 280.231786 
L 101.620061 280.231786 
L 101.755345 278.052328 
L 101.998856 278.052328 
L 102.13414 275.872864 
L 102.215311 275.872864 
L 102.350595 273.693407 
L 102.512935 273.693407 
L 102.675276 269.334486 
L 102.756447 269.334486 
L 102.891731 271.51395 
L 102.999958 271.51395 
L 103.189355 264.975571 
L 103.270526 264.975571 
L 103.40581 262.796107 
L 103.432867 262.796107 
L 103.541094 260.61665 
L 103.676378 262.796107 
L 103.811662 262.796107 
L 104.055173 251.898814 
L 104.217514 251.898814 
L 104.433968 243.180978 
L 104.461025 243.180978 
L 104.704536 232.283678 
L 104.812763 232.283678 
L 105.083331 219.206921 
L 105.164502 219.206921 
L 105.408013 208.309625 
L 105.43507 208.309625 
L 105.678581 197.412327 
L 105.705638 197.412327 
L 105.895035 190.002166 
L 106.003263 186.51503 
L 106.463228 165.810165 
L 106.490285 165.810165 
L 106.896137 149.682166 
L 107.112592 138.566921 
L 107.193762 138.566921 
L 107.356103 134.208003 
L 107.38316 134.208003 
L 107.653728 121.131246 
L 107.680784 121.131246 
L 107.897239 112.413407 
L 107.978409 112.413407 
L 108.22192 101.516114 
L 108.248977 101.516114 
L 108.438375 94.977735 
L 108.519545 94.977735 
L 108.736 86.259899 
L 108.871284 86.259899 
L 109.060681 79.721521 
L 109.114795 79.721521 
L 109.277136 75.3626 
L 109.41242 75.3626 
L 109.57476 71.003678 
L 109.628874 71.003678 
L 109.791215 66.644764 
L 109.872385 66.644764 
L 110.007669 64.4653 
L 110.386464 64.4653 
L 110.548805 60.106385 
L 110.873487 60.106385 
L 111.008771 57.926928 
L 111.116998 57.926928 
L 111.252282 55.74747 
L 111.712248 55.74747 
L 111.847532 53.568 
L 112.307497 53.568 
L 112.442781 55.74747 
L 112.821576 55.74747 
L 112.95686 57.926928 
L 113.038031 57.926928 
L 113.173315 60.106385 
L 113.254485 60.106385 
L 113.416826 64.4653 
L 113.579167 64.4653 
L 113.714451 66.644764 
L 113.795621 66.644764 
L 113.957962 71.003678 
L 113.985019 71.003678 
L 114.14736 75.3626 
L 114.174416 75.3626 
L 114.3097 77.542057 
L 114.336757 77.542057 
L 114.472041 79.721521 
L 114.499098 79.721521 
L 114.661439 84.080435 
L 114.688496 84.080435 
L 114.850836 88.439357 
L 114.932007 88.439357 
L 115.148461 97.157193 
L 115.202575 97.157193 
L 115.364916 101.516114 
L 115.391972 101.516114 
L 115.58137 108.054492 
L 115.608427 108.054492 
L 115.797824 114.592871 
L 115.824881 114.592871 
L 116.014279 121.131246 
L 116.068392 121.131246 
L 116.284847 129.849085 
L 116.33896 129.849085 
L 116.555415 138.566921 
L 116.582472 138.566921 
L 116.798926 147.28476 
L 116.825983 147.28476 
L 116.988324 152.515462 
L 117.204778 160.143571 
L 118.341164 201.771246 
L 118.36822 201.771246 
L 118.611732 212.668543 
L 118.638788 212.668543 
L 118.855243 221.386382 
L 118.909356 221.386382 
L 119.125811 230.104221 
L 119.152868 230.104221 
L 119.342265 236.6426 
L 119.369322 236.6426 
L 119.55872 243.180978 
L 119.585776 243.180978 
L 119.775174 249.719357 
L 119.829288 249.719357 
L 120.018685 256.257729 
L 120.072799 256.257729 
L 120.23514 260.61665 
L 120.262196 260.61665 
L 120.424537 264.975571 
L 120.478651 264.975571 
L 120.640992 269.334486 
L 120.695105 269.334486 
L 120.857446 273.693407 
L 120.884503 273.693407 
L 121.046844 278.052328 
L 121.155071 278.052328 
L 121.290355 280.231786 
L 121.317412 280.231786 
L 121.479752 284.5907 
L 121.615036 284.5907 
L 121.75032 286.770158 
L 121.858548 286.770158 
L 121.993832 288.949628 
L 122.075002 288.949628 
L 122.210286 291.129085 
L 122.237343 291.129085 
L 122.372627 293.308543 
L 122.697308 293.308543 
L 122.832592 295.488 
L 122.967876 295.488 
L 123.076104 293.308543 
L 123.211388 295.488 
L 123.427842 295.488 
L 123.563126 293.308543 
L 123.69841 293.308543 
L 123.833694 291.129085 
L 124.050148 291.129085 
L 124.185432 288.949628 
L 124.239546 288.949628 
L 124.37483 286.770158 
L 124.401887 286.770158 
L 124.537171 284.5907 
L 124.564228 284.5907 
L 124.726568 280.231786 
L 124.861852 280.231786 
L 125.024193 275.872864 
L 125.13242 275.872864 
L 125.294761 271.51395 
L 125.375932 271.51395 
L 125.538272 267.155028 
L 125.565329 267.155028 
L 125.72767 262.796107 
L 125.781784 262.796107 
L 125.971181 256.257729 
L 126.052352 256.257729 
L 126.214692 251.898814 
L 126.241749 251.898814 
L 126.431147 245.360435 
L 126.48526 245.360435 
L 126.701715 236.6426 
L 126.755828 236.6426 
L 126.945226 230.104221 
L 126.972283 230.104221 
L 127.16168 223.565839 
L 127.188737 223.565839 
L 127.405192 214.848003 
L 127.432248 214.848003 
L 127.621646 208.309625 
L 127.648703 208.309625 
L 127.865157 199.591786 
L 127.892214 199.591786 
L 128.081612 192.181625 
L 129.569736 147.28476 
L 129.596792 147.28476 
L 129.759133 142.925842 
L 129.813247 142.925842 
L 130.002644 136.387464 
L 130.056758 136.387464 
L 130.246156 129.849085 
L 130.273212 129.849085 
L 130.46261 123.310707 
L 130.54378 123.310707 
L 130.706121 118.951789 
L 130.787292 118.951789 
L 130.949632 114.592871 
L 130.976689 114.592871 
L 131.13903 110.23395 
L 131.2202 110.23395 
L 131.382541 105.875028 
L 131.517825 105.875028 
L 131.653109 103.695571 
L 131.680166 103.695571 
L 131.81545 101.516114 
L 131.842507 101.516114 
L 131.977791 99.33665 
L 132.004848 99.33665 
L 132.140132 97.157193 
L 132.248359 97.157193 
L 132.383643 94.977735 
L 132.437756 94.977735 
L 132.57304 92.798271 
L 132.897722 92.798271 
L 133.033006 90.618814 
L 133.465915 90.618814 
L 133.601199 88.439357 
L 134.196448 88.439357 
L 134.331732 90.618814 
L 134.629357 90.618814 
L 134.764641 92.798271 
L 134.954039 92.798271 
L 135.089323 94.977735 
L 135.19755 94.977735 
L 135.332834 97.157193 
L 135.359891 97.157193 
L 135.495175 99.33665 
L 135.576345 99.33665 
L 135.711629 101.516114 
L 135.765743 101.516114 
L 135.901027 103.695571 
L 135.955141 103.695571 
L 136.090425 105.875028 
L 136.117481 105.875028 
L 136.279822 110.23395 
L 136.388049 110.23395 
L 136.55039 114.592871 
L 136.712731 114.592871 
L 136.848015 116.772328 
L 136.875072 116.772328 
L 137.037413 121.131246 
L 137.14564 121.131246 
L 137.307981 125.490167 
L 137.389151 125.490167 
L 137.524435 127.669625 
L 137.551492 127.669625 
L 137.713833 132.028543 
L 137.795003 132.028543 
L 137.957344 136.387464 
L 138.065571 136.387464 
L 138.227912 140.746382 
L 138.309082 140.746382 
L 138.444366 142.925842 
L 138.471423 142.925842 
L 138.633764 147.28476 
L 138.687877 147.28476 
L 138.823161 150.771896 
L 141.420614 190.87395 
L 141.691182 193.053409 
L 141.826466 195.232868 
L 141.934693 195.232868 
L 142.069977 197.412327 
L 142.205261 197.412327 
L 142.340545 199.591786 
L 142.502886 199.591786 
L 142.63817 201.771246 
L 143.016965 201.771246 
L 143.152249 203.950707 
L 144.559203 203.950707 
L 144.694487 201.771246 
L 144.992112 201.771246 
L 145.127396 199.591786 
L 145.397964 199.591786 
L 145.533248 197.412327 
L 145.668532 197.412327 
L 145.803816 195.232868 
L 145.993213 195.232868 
L 146.128497 193.053409 
L 147.318997 182.592003 
L 147.616621 179.54076 
L 148.211871 173.874165 
L 148.455382 171.672911 
L 149.99762 159.925625 
L 150.024677 159.925625 
L 150.430529 157.528219 
L 150.457585 157.528219 
L 150.67404 156.656435 
L 150.701097 156.656435 
L 150.971665 155.34876 
L 150.998721 155.34876 
L 151.161062 154.912868 
L 151.215176 154.912868 
L 151.35046 154.694923 
L 151.377517 154.694923 
L 151.539857 154.25903 
L 151.621028 154.25903 
L 151.756312 154.041084 
L 152.080993 154.041084 
L 152.216277 154.25903 
L 152.405675 154.25903 
L 152.568016 154.694923 
L 152.622129 154.694923 
L 152.838584 155.566707 
L 152.865641 155.566707 
L 153.163265 157.092328 
L 153.190322 157.092328 
L 153.569117 159.271787 
L 153.596174 159.271787 
L 154.570219 166.246057 
L 154.597276 166.246057 
L 154.81373 168.207571 
L 154.840787 168.207571 
L 155.111355 170.866511 
L 157.627637 193.053409 
L 157.762921 195.232868 
L 157.898205 195.232868 
L 158.033489 197.412327 
L 158.222887 197.412327 
L 158.358171 199.591786 
L 158.628739 199.591786 
L 158.764023 201.771246 
L 159.169875 201.771246 
L 159.305159 203.950707 
L 159.954522 203.950707 
L 160.089806 206.130164 
L 160.630942 206.130164 
L 160.766226 203.950707 
L 161.307362 203.950707 
L 161.442646 201.771246 
L 161.740271 201.771246 
L 161.875555 199.591786 
L 162.119066 199.591786 
L 162.25435 197.412327 
L 162.443748 197.412327 
L 162.579032 195.232868 
L 162.741373 195.232868 
L 162.876657 193.053409 
L 163.742474 185.207355 
L 164.094213 181.284327 
L 164.445951 177.579246 
L 164.851803 172.719052 
L 165.311769 167.335787 
L 165.825848 160.797409 
L 166.204643 156.874382 
L 166.556382 152.951355 
L 166.98929 149.464219 
L 167.124574 147.28476 
L 167.232802 147.28476 
L 167.368086 145.105301 
L 167.476313 145.105301 
L 167.611597 142.925842 
L 167.746881 142.925842 
L 167.882165 140.746382 
L 168.044506 140.746382 
L 168.17979 138.566921 
L 168.369187 138.566921 
L 168.504471 136.387464 
L 168.802096 136.387464 
L 168.93738 134.208003 
L 169.424402 134.208003 
L 169.559686 132.028543 
L 170.96664 132.028543 
L 171.101924 134.208003 
L 171.64306 134.208003 
L 171.778344 136.387464 
L 172.103026 136.387464 
L 172.23831 138.566921 
L 172.481821 138.566921 
L 172.617105 140.746382 
L 172.779446 140.746382 
L 172.91473 142.925842 
L 173.07707 142.925842 
L 173.212354 145.105301 
L 173.347638 145.105301 
L 173.482922 147.28476 
L 173.618206 147.28476 
L 173.75349 149.464219 
L 174.592251 157.092328 
L 174.889876 160.143571 
L 175.268671 164.066598 
L 175.593353 167.553733 
L 175.945091 171.258814 
L 178.217862 192.181625 
L 178.434317 193.053409 
L 178.48843 193.053409 
L 178.623714 195.232868 
L 178.813112 195.232868 
L 178.948396 197.412327 
L 179.218964 197.412327 
L 179.354248 199.591786 
L 179.733043 199.591786 
L 179.868327 201.771246 
L 180.51769 201.771246 
L 180.652974 203.950707 
L 181.762303 203.950707 
L 181.897587 201.771246 
L 182.628121 201.771246 
L 182.763405 199.591786 
L 183.1422 199.591786 
L 183.277484 197.412327 
L 183.575109 197.412327 
L 183.710393 195.232868 
L 183.926847 195.232868 
L 184.062131 193.053409 
L 184.116245 193.053409 
L 188.012424 162.540976 
L 188.039481 162.540976 
L 188.661787 158.400003 
L 188.688844 158.400003 
L 189.094696 156.002598 
L 189.121753 156.002598 
L 189.446434 154.25903 
L 189.473491 154.25903 
L 189.717002 153.169301 
L 189.744059 153.169301 
L 189.98757 152.079571 
L 190.041684 152.079571 
L 190.258138 151.207787 
L 190.285195 151.207787 
L 190.474593 150.55395 
L 190.528706 150.55395 
L 190.691047 150.118057 
L 190.718104 150.118057 
L 190.880445 149.682166 
L 190.988672 149.682166 
L 191.123956 149.464219 
L 192.125058 149.464219 
L 192.260342 149.682166 
L 192.314455 149.682166 
L 192.449739 149.900112 
L 192.476796 149.900112 
L 192.639137 150.336003 
L 192.69325 150.336003 
L 192.882648 150.989841 
L 192.963819 150.989841 
L 193.153216 151.643678 
L 193.20733 151.643678 
L 193.423784 152.515462 
L 193.477898 152.515462 
L 193.721409 153.605193 
L 193.748466 153.605193 
L 193.991977 154.694923 
L 194.019034 154.694923 
L 194.289602 156.002598 
L 194.316659 156.002598 
L 194.668397 157.964111 
L 194.695454 157.964111 
L 195.047192 159.925625 
L 195.074249 159.925625 
L 195.480101 162.32303 
L 195.507158 162.32303 
L 195.940067 164.938382 
L 195.967123 164.938382 
L 196.372975 167.335787 
L 196.400032 167.335787 
L 196.751771 169.275506 
L 197.698759 174.092111 
L 197.725815 174.092111 
L 198.050497 175.835679 
L 198.077554 175.835679 
L 198.375179 177.361301 
L 198.402235 177.361301 
L 198.645747 178.45103 
L 198.672803 178.45103 
L 198.916315 179.54076 
L 198.943371 179.54076 
L 199.132769 180.194598 
L 199.159826 180.194598 
L 199.37628 181.066382 
L 199.457451 181.066382 
L 199.646848 181.720219 
L 199.700962 181.720219 
L 199.863303 182.156111 
L 199.944473 182.156111 
L 200.106814 182.592003 
L 200.215041 182.592003 
L 200.350325 182.809949 
L 200.431495 182.809949 
L 200.566779 183.027895 
L 200.675007 183.027895 
L 200.810291 183.245841 
L 201.459654 183.245841 
L 201.594938 183.027895 
L 201.730222 183.027895 
L 201.865506 182.809949 
L 201.946676 182.809949 
L 202.08196 182.592003 
L 202.163131 182.592003 
L 202.298415 182.374057 
L 202.325471 182.374057 
L 202.487812 181.938165 
L 202.596039 181.938165 
L 202.75838 181.502273 
L 202.866607 181.502273 
L 203.028948 181.066382 
L 203.083062 181.066382 
L 203.245403 180.63049 
L 203.326573 180.63049 
L 203.488914 180.194598 
L 203.515971 180.194598 
L 203.705368 179.54076 
L 203.813595 179.54076 
L 203.975936 179.104868 
L 204.002993 179.104868 
L 204.192391 178.45103 
L 204.273561 178.45103 
L 204.462959 177.797192 
L 204.517072 177.797192 
L 204.679413 177.361301 
L 204.70647 177.361301 
L 204.895867 176.707463 
L 204.977038 176.707463 
L 205.139379 176.271571 
L 205.166435 176.271571 
L 205.355833 175.617733 
L 205.409947 175.617733 
L 205.572287 175.181841 
L 205.599344 175.181841 
L 205.761685 174.745949 
L 205.788742 174.745949 
L 205.978139 174.092111 
L 206.032253 174.092111 
L 206.194594 173.656219 
L 206.221651 173.656219 
L 206.383991 173.198533 
L 206.979241 171.651117 
L 207.168639 171.145482 
L 208.034456 168.643463 
L 208.061513 168.643463 
L 208.277967 167.771679 
L 208.305024 167.771679 
L 208.494422 167.117841 
L 208.521479 167.117841 
L 208.710876 166.464003 
L 208.737933 166.464003 
L 208.954387 165.592219 
L 209.008501 165.592219 
L 209.197899 164.938382 
L 209.224955 164.938382 
L 209.414353 164.284543 
L 209.44141 164.284543 
L 209.630807 163.630706 
L 209.657864 163.630706 
L 209.820205 163.194814 
L 209.847262 163.194814 
L 210.009603 162.758922 
L 210.036659 162.758922 
L 210.199 162.32303 
L 210.226057 162.32303 
L 210.388398 161.887138 
L 210.469568 161.887138 
L 210.604852 161.669193 
L 210.631909 161.669193 
L 210.79425 161.233301 
L 210.956591 161.233301 
L 211.091875 161.015355 
L 211.281272 161.015355 
L 211.416556 160.797409 
L 211.849465 160.797409 
L 211.984749 161.015355 
L 212.14709 161.015355 
L 212.282374 161.233301 
L 212.363544 161.233301 
L 212.498828 161.451246 
L 212.525885 161.451246 
L 212.688226 161.887138 
L 212.769396 161.887138 
L 212.931737 162.32303 
L 212.985851 162.32303 
L 213.148191 162.758922 
L 213.175248 162.758922 
L 213.364646 163.41276 
L 213.418759 163.41276 
L 213.608157 164.066598 
L 213.662271 164.066598 
L 213.851668 164.720436 
L 213.878725 164.720436 
L 214.068123 165.374273 
L 214.095179 165.374273 
L 214.311634 166.246057 
L 214.365747 166.246057 
L 214.582202 167.117841 
L 214.609259 167.117841 
L 214.825713 167.989625 
L 214.879827 167.989625 
L 215.096281 168.861409 
L 215.123338 168.861409 
L 215.312735 169.58063 
L 215.61036 170.561387 
L 216.28678 172.828025 
L 216.719689 174.092111 
L 216.909087 174.745949 
L 216.936143 174.745949 
L 217.125541 175.399787 
L 217.152598 175.399787 
L 217.341995 176.053625 
L 217.396109 176.053625 
L 217.585507 176.707463 
L 217.63962 176.707463 
L 217.801961 177.143355 
L 217.829018 177.143355 
L 218.018415 177.797192 
L 218.099586 177.797192 
L 218.261927 178.233084 
L 218.31604 178.233084 
L 218.478381 178.668976 
L 218.505438 178.668976 
L 218.667779 179.104868 
L 218.748949 179.104868 
L 218.91129 179.54076 
L 219.019517 179.54076 
L 219.154801 179.758706 
L 219.181858 179.758706 
L 219.344199 180.194598 
L 219.479483 180.194598 
L 219.614767 180.412543 
L 219.66888 180.412543 
L 219.804164 180.63049 
L 219.885335 180.63049 
L 220.020619 180.848435 
L 220.210016 180.848435 
L 220.3453 181.066382 
L 221.373459 181.066382 
L 221.508743 180.848435 
L 221.69814 180.848435 
L 221.833424 180.63049 
L 221.968708 180.63049 
L 222.103992 180.412543 
L 222.158106 180.412543 
L 222.29339 180.194598 
L 222.320447 180.194598 
L 222.455731 179.976652 
L 222.482788 179.976652 
L 222.645128 179.54076 
L 222.753356 179.54076 
L 222.915696 179.104868 
L 222.996867 179.104868 
L 223.159208 178.668976 
L 223.213321 178.668976 
L 223.375662 178.233084 
L 223.429776 178.233084 
L 223.592116 177.797192 
L 223.619173 177.797192 
L 223.781514 177.361301 
L 223.808571 177.361301 
L 223.970912 176.925409 
L 223.997968 176.925409 
L 224.160309 176.489517 
L 224.187366 176.489517 
L 224.376764 175.835679 
L 224.457934 175.835679 
L 224.647332 175.181841 
L 224.728502 175.181841 
L 224.9179 174.528003 
L 224.972013 174.528003 
L 225.161411 173.874165 
L 225.242581 173.874165 
L 225.404922 173.351095 
L 226.054285 171.585733 
L 226.135456 171.411376 
L 226.460137 170.517798 
L 227.136557 168.643463 
L 227.163614 168.643463 
L 227.353012 167.989625 
L 227.407125 167.989625 
L 227.596523 167.335787 
L 227.62358 167.335787 
L 227.78592 166.899895 
L 227.812977 166.899895 
L 228.002375 166.246057 
L 228.056488 166.246057 
L 228.245886 165.592219 
L 228.3 165.592219 
L 228.46234 165.156327 
L 228.489397 165.156327 
L 228.651738 164.720436 
L 228.678795 164.720436 
L 228.841136 164.284543 
L 228.868192 164.284543 
L 229.030533 163.848652 
L 229.084647 163.848652 
L 229.246988 163.41276 
L 229.274044 163.41276 
L 229.436385 162.976868 
L 229.517556 162.976868 
L 229.679896 162.540976 
L 229.761067 162.540976 
L 229.923408 162.105084 
L 230.031635 162.105084 
L 230.193976 161.669193 
L 230.356316 161.669193 
L 230.4916 161.451246 
L 230.518657 161.451246 
L 230.653941 161.233301 
L 230.762168 161.233301 
L 230.897452 161.015355 
L 231.059793 161.015355 
L 231.195077 160.797409 
L 231.736213 160.797409 
L 231.76327 160.579463 
L 231.84444 160.797409 
L 232.43969 160.797409 
L 232.574974 161.015355 
L 232.845542 161.015355 
L 232.980826 161.233301 
L 233.089053 161.233301 
L 233.224337 161.451246 
L 233.305508 161.451246 
L 233.440792 161.669193 
L 233.494905 161.669193 
L 233.657246 162.105084 
L 233.79253 162.105084 
L 233.954871 162.540976 
L 234.063098 162.540976 
L 234.225439 162.976868 
L 234.306609 162.976868 
L 234.46895 163.41276 
L 234.496007 163.41276 
L 234.658348 163.848652 
L 234.712461 163.848652 
L 234.874802 164.284543 
L 234.901859 164.284543 
L 235.0642 164.720436 
L 235.091256 164.720436 
L 235.280654 165.374273 
L 235.307711 165.374273 
L 235.470052 165.810165 
L 235.497108 165.810165 
L 235.686506 166.464003 
L 235.713563 166.464003 
L 235.90296 167.117841 
L 235.930017 167.117841 
L 236.146472 167.989625 
L 236.200585 167.989625 
L 236.41704 168.861409 
L 236.471153 168.861409 
L 236.660551 169.602425 
L 237.445198 172.501106 
L 238.52747 176.489517 
L 238.554527 176.489517 
L 238.770981 177.361301 
L 238.798038 177.361301 
L 239.014492 178.233084 
L 239.068606 178.233084 
L 239.258004 178.886922 
L 239.28506 178.886922 
L 239.501515 179.758706 
L 239.555628 179.758706 
L 239.745026 180.412543 
L 239.826196 180.412543 
L 239.988537 180.848435 
L 240.015594 180.848435 
L 240.177935 181.284327 
L 240.232048 181.284327 
L 240.394389 181.720219 
L 240.448503 181.720219 
L 240.610844 182.156111 
L 240.719071 182.156111 
L 240.854355 182.374057 
L 240.935525 182.374057 
L 241.070809 182.592003 
L 241.15198 182.592003 
L 241.287264 182.809949 
L 241.639002 182.809949 
L 241.774286 183.027895 
L 241.90957 182.809949 
L 241.936627 183.027895 
L 242.017797 182.809949 
L 242.450706 182.809949 
L 242.58599 182.592003 
L 242.694217 182.592003 
L 242.829501 182.374057 
L 242.883615 182.374057 
L 243.018899 182.156111 
L 243.045956 182.156111 
L 243.18124 181.938165 
L 243.208296 181.938165 
L 243.370637 181.502273 
L 243.478864 181.502273 
L 243.641205 181.066382 
L 243.749432 181.066382 
L 243.911773 180.63049 
L 243.965887 180.63049 
L 244.128228 180.194598 
L 244.155284 180.194598 
L 244.317625 179.758706 
L 244.344682 179.758706 
L 244.507023 179.322814 
L 244.53408 179.322814 
L 244.69642 178.886922 
L 244.723477 178.886922 
L 244.885818 178.45103 
L 244.912875 178.45103 
L 245.102272 177.797192 
L 245.156386 177.797192 
L 245.345784 177.143355 
L 245.399897 177.143355 
L 245.589295 176.489517 
L 245.643408 176.489517 
L 245.832806 175.835679 
L 245.88692 175.835679 
L 246.076317 175.181841 
L 246.130431 175.181841 
L 246.319828 174.528003 
L 246.346885 174.528003 
L 246.509226 174.092111 
L 246.536283 174.092111 
L 246.72568 173.438273 
L 246.969192 172.849819 
L 247.564441 171.291506 
L 248.75494 168.425517 
L 248.781997 168.425517 
L 248.944338 167.989625 
L 248.971395 167.989625 
L 249.133736 167.553733 
L 249.160792 167.553733 
L 249.323133 167.117841 
L 249.377247 167.117841 
L 249.539588 166.681949 
L 249.593701 166.681949 
L 249.756042 166.246057 
L 249.837212 166.246057 
L 249.999553 165.810165 
L 250.053667 165.810165 
L 250.188951 165.592219 
L 250.216008 165.592219 
L 250.378348 165.156327 
L 250.459519 165.156327 
L 250.62186 164.720436 
L 250.730087 164.720436 
L 250.865371 164.50249 
L 250.892428 164.50249 
L 251.054769 164.066598 
L 251.190053 164.066598 
L 251.325337 163.848652 
L 251.37945 163.848652 
L 251.514734 163.630706 
L 251.568848 163.630706 
L 251.704132 163.41276 
L 251.758245 163.41276 
L 251.893529 163.194814 
L 252.028813 163.194814 
L 252.164097 162.976868 
L 252.299381 162.976868 
L 252.434665 162.758922 
L 252.705233 162.758922 
L 252.840517 162.540976 
L 253.814562 162.540976 
L 253.949846 162.758922 
L 254.220414 162.758922 
L 254.355698 162.976868 
L 254.490982 162.976868 
L 254.626266 163.194814 
L 254.707437 163.194814 
L 254.842721 163.41276 
L 254.923891 163.41276 
L 255.059175 163.630706 
L 255.086232 163.630706 
L 255.221516 163.848652 
L 255.275629 163.848652 
L 255.410913 164.066598 
L 255.43797 164.066598 
L 255.600311 164.50249 
L 255.708538 164.50249 
L 255.870879 164.938382 
L 255.979106 164.938382 
L 256.141447 165.374273 
L 256.249674 165.374273 
L 256.412015 165.810165 
L 256.493185 165.810165 
L 256.655526 166.246057 
L 256.736697 166.246057 
L 256.899037 166.681949 
L 256.980208 166.681949 
L 257.142549 167.117841 
L 257.169605 167.117841 
L 257.331946 167.553733 
L 257.413117 167.553733 
L 257.575457 167.989625 
L 257.629571 167.989625 
L 257.791912 168.425517 
L 257.873082 168.425517 
L 258.035423 168.861409 
L 258.089537 168.861409 
L 258.251877 169.297301 
L 259.117695 171.099713 
L 259.685888 172.217776 
L 259.902342 172.675463 
L 260.335251 173.438273 
L 260.497592 173.874165 
L 260.578762 173.874165 
L 260.741103 174.310057 
L 260.822273 174.310057 
L 260.957557 174.528003 
L 260.984614 174.528003 
L 261.146955 174.963895 
L 261.255182 174.963895 
L 261.417523 175.399787 
L 261.52575 175.399787 
L 261.661034 175.617733 
L 261.688091 175.617733 
L 261.823375 175.835679 
L 261.904545 175.835679 
L 262.066886 176.271571 
L 262.256284 176.271571 
L 262.391568 176.489517 
L 262.472738 176.489517 
L 262.608022 176.707463 
L 262.79742 176.707463 
L 262.932704 176.925409 
L 263.149158 176.925409 
L 263.284442 177.143355 
L 264.447885 177.143355 
L 264.583169 176.925409 
L 264.880793 176.925409 
L 265.016077 176.707463 
L 265.232532 176.707463 
L 265.367816 176.489517 
L 265.476043 176.489517 
L 265.611327 176.271571 
L 265.719554 176.271571 
L 265.854838 176.053625 
L 265.936009 176.053625 
L 266.071293 175.835679 
L 266.17952 175.835679 
L 266.314804 175.617733 
L 266.341861 175.617733 
L 266.477145 175.399787 
L 266.558315 175.399787 
L 266.693599 175.181841 
L 266.720656 175.181841 
L 266.85594 174.963895 
L 266.93711 174.963895 
L 267.072394 174.745949 
L 267.126508 174.745949 
L 267.261792 174.528003 
L 267.288849 174.528003 
L 267.424133 174.310057 
L 267.505303 174.310057 
L 267.640587 174.092111 
L 267.694701 174.092111 
L 267.829985 173.874165 
L 267.911155 173.874165 
L 268.046439 173.656219 
L 268.127609 173.656219 
L 268.235837 173.416479 
L 268.262893 173.438273 
L 268.560518 173.154944 
L 270.589778 171.651117 
L 270.833289 171.542144 
L 271.212085 171.372146 
L 271.942618 171.106252 
L 272.104959 171.019073 
L 272.186129 171.019073 
L 272.213186 170.975484 
L 272.510811 170.866511 
L 272.94372 170.648565 
L 273.133117 170.604976 
L 273.268401 170.474209 
L 273.295458 170.517798 
L 273.376629 170.452414 
L 273.538969 170.365236 
L 273.755424 170.278057 
L 273.944821 170.169084 
L 274.350673 169.951138 
L 274.37773 169.994728 
L 274.431844 169.951138 
L 274.594185 169.842165 
L 274.621241 169.885755 
L 274.702412 169.820371 
L 275.081207 169.624219 
L 275.189434 169.58063 
L 275.378832 169.537041 
L 275.514116 169.406273 
L 275.595286 169.406273 
L 275.622343 169.362684 
L 275.892911 169.253711 
L 276.163479 169.144738 
L 276.298763 169.122944 
L 276.515217 169.079355 
L 277.75983 169.166533 
L 277.922171 169.253711 
L 278.138625 169.319095 
L 278.273909 169.406273 
L 278.490364 169.558836 
L 278.652705 169.624219 
L 278.815045 169.798576 
L 278.923273 169.842165 
L 281.764237 171.99983 
L 281.899521 172.021625 
L 282.143032 172.108803 
L 282.278316 172.087009 
L 283.144134 171.978036 
L 283.495872 171.825473 
L 283.739383 171.7165 
L 284.199349 171.459324 
L 284.307576 171.404838 
L 284.713428 171.132405 
L 284.794598 171.138944 
L 284.956939 170.975484 
L 285.173394 170.866511 
L 285.768643 170.496003 
L 285.849814 170.496003 
L 286.012154 170.38703 
L 286.255666 170.299852 
L 286.418006 170.190879 
L 286.526234 170.190879 
L 286.796802 170.081906 
L 286.877972 170.125495 
L 286.905029 170.060111 
L 287.527335 169.972933 
L 287.662619 169.907549 
L 287.797903 169.885755 
L 290.774151 169.994728 
L 290.990606 170.038317 
L 291.585855 170.14729 
L 291.775253 170.190879 
L 291.88348 170.190879 
L 292.018764 170.234468 
L 292.424616 170.321646 
L 292.5599 170.38703 
L 292.695184 170.408825 
L 293.019866 170.561387 
L 293.046922 170.517798 
L 293.128093 170.583182 
L 293.506888 170.757538 
L 293.750399 170.866511 
L 294.210365 171.125867 
L 294.291535 171.138944 
L 294.318592 171.178174 
L 294.50799 171.26557 
L 294.778558 171.417915 
L 294.913842 171.47676 
L 295.130296 171.629322 
L 295.211466 171.629322 
L 295.373807 171.76009 
L 295.590262 171.869063 
L 295.779659 171.99983 
L 295.969057 172.087009 
L 296.131398 172.217776 
L 296.239625 172.261365 
L 296.888988 172.653668 
L 297.078386 172.740846 
L 297.267783 172.871614 
L 297.348954 172.871614 
L 297.484238 172.958792 
L 297.700692 173.045971 
L 297.863033 173.133149 
L 298.133601 173.220327 
L 298.295942 173.307506 
L 298.404169 173.307506 
L 298.56651 173.394684 
L 298.64768 173.37289 
L 298.674737 173.416479 
L 298.810021 173.438273 
L 299.24293 173.438273 
L 299.351157 173.656219 
L 299.378214 173.438273 
L 299.459384 173.656219 
L 301.136906 173.656219 
L 301.27219 173.438273 
L 302.083894 173.3293 
L 302.408575 173.198533 
L 302.733257 173.111355 
L 302.922654 173.002382 
L 303.139109 172.936998 
L 303.30145 172.828025 
L 303.923756 172.457517 
L 304.086097 172.348544 
L 305.655391 171.171636 
L 305.682448 171.213045 
L 305.709505 171.125867 
L 305.736562 171.171636 
L 305.898902 170.997279 
L 306.034186 170.931895 
L 306.223584 170.735744 
L 306.304754 170.692155 
L 308.144617 169.34089 
L 308.361071 169.231917 
L 308.550469 169.122944 
L 308.875151 169.079355 
L 309.010435 168.861409 
L 309.4704 168.861409 
L 309.605684 168.643463 
L 310.471502 168.643463 
L 310.552672 168.425517 
L 310.579729 168.643463 
L 310.606786 168.643463 
L 310.74207 168.425517 
L 311.202035 168.425517 
L 311.310263 168.643463 
L 311.337319 168.425517 
L 311.41849 168.643463 
L 312.203137 168.643463 
L 312.311364 168.861409 
L 312.338421 168.643463 
L 312.419591 168.861409 
L 312.798387 168.861409 
L 312.933671 169.079355 
L 313.258352 169.188328 
L 313.880659 169.558836 
L 314.015943 169.646014 
L 314.232397 169.820371 
L 314.313567 169.842165 
L 314.557079 170.038317 
L 317.776838 172.501106 
L 317.858008 172.5229 
L 318.074463 172.697257 
L 318.18269 172.740846 
L 318.372087 172.871614 
L 318.480315 172.915203 
L 318.696769 173.024176 
L 319.156735 173.285711 
L 319.264962 173.3293 
L 319.724927 173.438273 
L 319.860211 173.656219 
L 320.401347 173.656219 
L 320.536631 173.874165 
L 321.213051 173.874165 
L 321.321279 174.092111 
L 321.402449 173.874165 
L 321.429506 174.092111 
L 323.134084 174.092111 
L 323.269368 173.874165 
L 323.783447 173.874165 
L 323.918731 173.656219 
L 323.945788 173.874165 
L 324.026959 173.656219 
L 324.27047 173.656219 
L 324.405754 173.438273 
L 324.703379 173.3293 
L 324.919833 173.176738 
L 326.624411 171.694706 
L 326.813809 171.498555 
L 327.436115 170.9101 
L 329.708887 169.210122 
L 329.790057 169.188328 
L 329.979455 169.079355 
L 330.222966 169.079355 
L 330.35825 168.861409 
L 330.926443 168.861409 
L 331.061727 168.643463 
L 332.658078 168.643463 
L 332.793362 168.861409 
L 333.442725 168.861409 
L 333.578009 169.079355 
L 333.956804 169.166533 
L 334.119145 169.275506 
L 334.227372 169.297301 
L 334.822622 169.646014 
L 334.984963 169.733192 
L 335.147303 169.842165 
L 335.904894 170.321646 
L 336.067235 170.408825 
L 336.283689 170.561387 
L 337.095393 171.086637 
L 337.393018 171.245519 
L 337.582416 171.385223 
L 337.663586 171.385223 
L 337.825927 171.520349 
L 337.907097 171.520349 
L 337.934154 171.563938 
L 338.204722 171.672911 
L 338.340006 171.781884 
L 338.367063 171.7165 
L 338.448233 171.803679 
L 338.854085 171.99983 
L 338.935256 171.99983 
L 338.962312 172.043419 
L 339.178767 172.108803 
L 339.341108 172.217776 
L 339.476392 172.239571 
L 339.665789 172.348544 
L 339.990471 172.501106 
L 340.098698 172.5229 
L 340.42338 172.675463 
L 340.531607 172.697257 
L 340.802175 172.80623 
L 340.937459 172.80623 
L 341.072743 172.893409 
L 341.18097 172.893409 
L 341.316254 172.958792 
L 341.424481 172.958792 
L 341.586822 173.024176 
L 341.722106 173.045971 
L 342.344412 173.133149 
L 342.479696 173.198533 
L 342.506753 173.133149 
L 342.587924 173.176738 
L 342.777321 173.198533 
L 343.96782 173.111355 
L 344.130161 173.045971 
L 344.508956 172.958792 
L 344.671297 172.871614 
L 344.995979 172.784436 
L 345.15832 172.675463 
L 345.266547 172.631873 
L 345.537115 172.544695 
L 345.726512 172.413927 
L 345.83474 172.370338 
L 346.294705 172.108803 
L 346.402932 172.065214 
L 346.998182 171.7165 
L 347.133466 171.672911 
L 347.26875 171.542144 
L 347.376977 171.498555 
L 347.620488 171.326377 
L 347.728716 171.272109 
L 347.918113 171.184712 
L 348.161624 171.019073 
L 348.405136 170.9101 
L 348.865101 170.67036 
L 349.081556 170.583182 
L 349.21684 170.496003 
L 349.460351 170.408825 
L 349.595635 170.299852 
L 349.622692 170.343441 
L 349.920316 170.212673 
L 350.028544 170.190879 
L 350.163828 170.103701 
L 350.190884 170.125495 
L 350.488509 170.016522 
L 350.975532 169.907549 
L 351.164929 169.842165 
L 351.273156 169.86396 
L 351.40844 169.820371 
L 353.681212 169.907549 
L 353.843552 169.972933 
L 353.978836 169.994728 
L 354.438802 170.103701 
L 354.655256 170.190879 
L 354.736427 170.169084 
L 354.763484 170.190879 
L 355.169336 170.299852 
L 355.46696 170.408825 
L 355.602244 170.430619 
L 355.764585 170.496003 
L 356.008096 170.583182 
L 356.089267 170.561387 
L 356.170437 170.648565 
L 356.224551 170.626771 
L 356.522176 170.735744 
L 356.603346 170.713949 
L 356.73863 170.801128 
L 357.090368 170.866511 
L 357.225652 170.931895 
L 357.523277 171.045227 
L 357.550334 170.997279 
L 357.631504 171.07356 
L 357.847959 171.119329 
L 358.064413 171.206507 
L 358.17264 171.184712 
L 358.307924 171.278865 
L 358.470265 171.304583 
L 359.092572 171.520349 
L 359.173742 171.498555 
L 359.200799 171.542144 
L 359.633708 171.651117 
L 359.877219 171.738295 
L 360.012503 171.76009 
L 360.256014 171.825473 
L 360.688923 171.934446 
L 360.932434 171.99983 
L 361.581797 172.108803 
L 361.825308 172.174187 
L 361.960592 172.174187 
L 362.14999 172.217776 
L 362.312331 172.217776 
L 365.288579 172.108803 
L 365.505033 172.065214 
L 366.019113 171.956241 
L 366.289681 171.847268 
L 366.370851 171.869063 
L 366.397908 171.825473 
L 366.533192 171.825473 
L 366.695533 171.76009 
L 366.80376 171.7165 
L 367.128441 171.651117 
L 367.263725 171.585733 
L 367.534293 171.465863 
L 367.615464 171.47676 
L 367.777805 171.352531 
L 367.804861 171.411376 
L 367.886032 171.345992 
L 369.320042 170.757538 
L 369.428269 170.735744 
L 369.780008 170.583182 
L 370.050576 170.496003 
L 370.212917 170.430619 
L 370.591712 170.321646 
L 370.835223 170.234468 
L 370.970507 170.234468 
L 371.214018 170.169084 
L 373.757357 170.278057 
L 373.892641 170.321646 
L 374.379664 170.430619 
L 374.677289 170.539592 
L 375.083141 170.648565 
L 375.353709 170.757538 
L 375.488993 170.757538 
L 375.651333 170.844717 
L 375.759561 170.866511 
L 376.030129 170.95369 
L 376.381867 171.058304 
L 376.598321 171.145482 
L 376.679492 171.145482 
L 376.706549 171.178174 
L 378.059389 171.585733 
L 378.194673 171.672911 
L 378.221729 171.651117 
L 378.573468 171.76009 
L 378.844036 171.847268 
L 379.222831 171.956241 
L 379.493399 172.043419 
L 379.628683 172.043419 
L 379.763967 172.108803 
L 380.223933 172.217776 
L 380.41333 172.261365 
L 380.548614 172.261365 
L 380.683898 172.304955 
L 381.820284 172.392133 
L 381.901454 172.413927 
L 381.928511 172.392133 
L 383.79543 172.304955 
L 383.903657 172.261365 
L 384.011885 172.261365 
L 384.201282 172.217776 
L 384.336566 172.195982 
L 384.877702 172.108803 
L 385.012986 172.065214 
L 385.472952 171.956241 
L 385.716463 171.890857 
L 386.095258 171.803679 
L 386.230542 171.738295 
L 386.365826 171.7165 
L 386.609337 171.629322 
L 386.717565 171.607527 
L 386.961076 171.520349 
L 387.09636 171.498555 
L 387.285757 171.411376 
L 387.421041 171.391761 
L 387.610439 171.298044 
L 387.718666 171.26557 
L 388.719768 170.931895 
L 388.882109 170.866511 
L 389.152677 170.757538 
L 389.287961 170.757538 
L 389.423245 170.67036 
L 389.80204 170.561387 
L 390.072608 170.452414 
L 390.207892 170.430619 
L 390.640801 170.321646 
L 390.911369 170.234468 
L 391.046653 170.212673 
L 391.263107 170.169084 
L 391.750129 170.103701 
L 391.885413 170.038317 
L 392.020697 170.060111 
L 392.155981 170.016522 
L 394.428753 170.081906 
L 394.564037 170.125495 
L 394.807548 170.212673 
L 394.942832 170.212673 
L 395.186343 170.299852 
L 395.321627 170.299852 
L 395.456911 170.38703 
L 395.538082 170.365236 
L 395.565138 170.408825 
L 395.943934 170.517798 
L 396.241558 170.626771 
L 396.376842 170.648565 
L 396.674467 170.779333 
L 396.782694 170.801128 
L 397.107376 170.931895 
L 397.432058 171.040868 
L 398.487273 171.391761 
L 398.487273 171.391761 
" style="fill:none;stroke:#0000ff;stroke-linecap:square;stroke-width:1.5;"/>
   </g>
   <g id="patch_3">
    <path d="M 57.6 307.584 
L 57.6 41.472 
" style="fill:none;stroke:#000000;stroke-linecap:square;stroke-linejoin:miter;stroke-width:0.8;"/>
   </g>
   <g id="patch_4">
    <path d="M 414.72 307.584 
L 414.72 41.472 
" style="fill:none;stroke:#000000;stroke-linecap:square;stroke-linejoin:miter;stroke-width:0.8;"/>
   </g>
   <g id="patch_5">
    <path d="M 57.6 307.584 
L 414.72 307.584 
" style="fill:none;stroke:#000000;stroke-linecap:square;stroke-linejoin:miter;stroke-width:0.8;"/>
   </g>
   <g id="patch_6">
    <path d="M 57.6 41.472 
L 414.72 41.472 
" style="fill:none;stroke:#000000;stroke-linecap:square;stroke-linejoin:miter;stroke-width:0.8;"/>
   </g>
   <g id="text_16">
    <!-- No augmentation -->
    <defs>
     <path d="M 9.8125 72.90625 
L 23.09375 72.90625 
L 55.421875 11.921875 
L 55.421875 72.90625 
L 64.984375 72.90625 
L 64.984375 0 
L 51.703125 0 
L 19.390625 60.984375 
L 19.390625 0 
L 9.8125 0 
z
" id="DejaVuSans-78"/>
     <path d="M 30.609375 48.390625 
Q 23.390625 48.390625 19.1875 42.75 
Q 14.984375 37.109375 14.984375 27.296875 
Q 14.984375 17.484375 19.15625 11.84375 
Q 23.34375 6.203125 30.609375 6.203125 
Q 37.796875 6.203125 41.984375 11.859375 
Q 46.1875 17.53125 46.1875 27.296875 
Q 46.1875 37.015625 41.984375 42.703125 
Q 37.796875 48.390625 30.609375 48.390625 
z
M 30.609375 56 
Q 42.328125 56 49.015625 48.375 
Q 55.71875 40.765625 55.71875 27.296875 
Q 55.71875 13.875 49.015625 6.21875 
Q 42.328125 -1.421875 30.609375 -1.421875 
Q 18.84375 -1.421875 12.171875 6.21875 
Q 5.515625 13.875 5.515625 27.296875 
Q 5.515625 40.765625 12.171875 48.375 
Q 18.84375 56 30.609375 56 
z
" id="DejaVuSans-111"/>
     <path d="M 45.40625 27.984375 
Q 45.40625 37.75 41.375 43.109375 
Q 37.359375 48.484375 30.078125 48.484375 
Q 22.859375 48.484375 18.828125 43.109375 
Q 14.796875 37.75 14.796875 27.984375 
Q 14.796875 18.265625 18.828125 12.890625 
Q 22.859375 7.515625 30.078125 7.515625 
Q 37.359375 7.515625 41.375 12.890625 
Q 45.40625 18.265625 45.40625 27.984375 
z
M 54.390625 6.78125 
Q 54.390625 -7.171875 48.1875 -13.984375 
Q 42 -20.796875 29.203125 -20.796875 
Q 24.46875 -20.796875 20.265625 -20.09375 
Q 16.0625 -19.390625 12.109375 -17.921875 
L 12.109375 -9.1875 
Q 16.0625 -11.328125 19.921875 -12.34375 
Q 23.78125 -13.375 27.78125 -13.375 
Q 36.625 -13.375 41.015625 -8.765625 
Q 45.40625 -4.15625 45.40625 5.171875 
L 45.40625 9.625 
Q 42.625 4.78125 38.28125 2.390625 
Q 33.9375 0 27.875 0 
Q 17.828125 0 11.671875 7.65625 
Q 5.515625 15.328125 5.515625 27.984375 
Q 5.515625 40.671875 11.671875 48.328125 
Q 17.828125 56 27.875 56 
Q 33.9375 56 38.28125 53.609375 
Q 42.625 51.21875 45.40625 46.390625 
L 45.40625 54.6875 
L 54.390625 54.6875 
z
" id="DejaVuSans-103"/>
    </defs>
    <g transform="translate(183.944063 35.472)scale(0.12 -0.12)">
     <use xlink:href="#DejaVuSans-78"/>
     <use x="74.804688" xlink:href="#DejaVuSans-111"/>
     <use x="135.986328" xlink:href="#DejaVuSans-32"/>
     <use x="167.773438" xlink:href="#DejaVuSans-97"/>
     <use x="229.052734" xlink:href="#DejaVuSans-117"/>
     <use x="292.431641" xlink:href="#DejaVuSans-103"/>
     <use x="355.908203" xlink:href="#DejaVuSans-109"/>
     <use x="453.320312" xlink:href="#DejaVuSans-101"/>
     <use x="514.84375" xlink:href="#DejaVuSans-110"/>
     <use x="578.222656" xlink:href="#DejaVuSans-116"/>
     <use x="617.431641" xlink:href="#DejaVuSans-97"/>
     <use x="678.710938" xlink:href="#DejaVuSans-116"/>
     <use x="717.919922" xlink:href="#DejaVuSans-105"/>
     <use x="745.703125" xlink:href="#DejaVuSans-111"/>
     <use x="806.884766" xlink:href="#DejaVuSans-110"/>
    </g>
   </g>
  </g>
 </g>
 <defs>
  <clipPath id="p6bbf3cd1b9">
   <rect height="266.112" width="357.12" x="57.6" y="41.472"/>
  </clipPath>
 </defs>
</svg>
